<svg width="447" height="72" viewBox="0 0 447 72" fill="none" xmlns="http://www.w3.org/2000/svg">
<path d="M85.9968 57V19.176H72.9408V12.2H107.309V19.176H94.1888V57H85.9968ZM111.599 57V12.2H119.727V28.968C120.836 27.4747 122.308 26.3653 124.143 25.64C126.02 24.872 127.897 24.488 129.775 24.488C133.444 24.488 136.452 25.6827 138.799 28.072C141.145 30.4187 142.319 33.832 142.319 38.312V57H134.191V39.4C134.191 37.0107 133.572 35.0907 132.335 33.64C131.14 32.1467 129.369 31.4 127.023 31.4C124.676 31.4 122.863 32.1467 121.583 33.64C120.345 35.0907 119.727 37.0107 119.727 39.4V57H111.599ZM159.952 57.768C157.222 57.768 154.896 57.192 152.976 56.04C151.056 54.8453 149.584 53.224 148.56 51.176C147.536 49.0853 147.024 46.7173 147.024 44.072V25.256H155.152V42.856C155.152 45.2027 155.75 47.1227 156.944 48.616C158.182 50.1093 159.974 50.856 162.32 50.856C164.752 50.856 166.566 50.1307 167.76 48.68C168.955 47.2293 169.552 45.288 169.552 42.856V25.256H177.744V57H169.552V53.288C168.486 54.7387 167.078 55.848 165.328 56.616C163.622 57.384 161.83 57.768 159.952 57.768ZM183.474 57V25.256H191.602V28.904C192.668 27.4107 194.034 26.3013 195.698 25.576C197.362 24.8507 199.111 24.488 200.946 24.488C203.335 24.488 205.554 25 207.602 26.024C209.692 27.0053 211.314 28.5627 212.466 30.696C213.532 28.7333 215.004 27.2187 216.882 26.152C218.802 25.0427 220.892 24.488 223.154 24.488C225.586 24.488 227.783 25 229.746 26.024C231.751 27.0053 233.33 28.52 234.482 30.568C235.634 32.616 236.21 35.176 236.21 38.248V57H228.082V39.4C228.082 37.0107 227.506 35.112 226.354 33.704C225.202 32.296 223.431 31.592 221.042 31.592C218.695 31.592 216.924 32.296 215.73 33.704C214.535 35.112 213.938 37.0107 213.938 39.4V57H205.81V39.4C205.81 36.968 205.191 35.0693 203.954 33.704C202.759 32.296 201.031 31.592 198.77 31.592C196.85 31.592 195.164 32.2107 193.714 33.448C192.306 34.6427 191.602 36.6267 191.602 39.4V57H183.474ZM260.29 57.768C258.156 57.768 256.151 57.3627 254.274 56.552C252.439 55.6987 250.903 54.3973 249.666 52.648V57H241.474V12.2H249.602V29.736C250.796 27.9867 252.332 26.6853 254.21 25.832C256.087 24.936 258.114 24.488 260.29 24.488C263.319 24.488 265.922 25.2347 268.098 26.728C270.316 28.1787 272.023 30.1627 273.218 32.68C274.412 35.1547 275.01 37.928 275.01 41C275.01 44.0293 274.412 46.824 273.218 49.384C272.023 51.944 270.316 53.992 268.098 55.528C265.922 57.0213 263.319 57.768 260.29 57.768ZM258.114 50.6C259.82 50.6 261.314 50.1733 262.594 49.32C263.874 48.4667 264.876 47.3147 265.602 45.864C266.327 44.3707 266.69 42.7493 266.69 41C266.69 38.9947 266.284 37.3093 265.474 35.944C264.706 34.536 263.66 33.4693 262.338 32.744C261.058 32.0187 259.65 31.656 258.114 31.656C256.45 31.656 254.978 32.0613 253.698 32.872C252.46 33.6827 251.479 34.8133 250.754 36.264C250.028 37.672 249.666 39.2933 249.666 41.128C249.666 43.0053 250.028 44.6693 250.754 46.12C251.522 47.528 252.546 48.6373 253.826 49.448C255.106 50.216 256.535 50.6 258.114 50.6ZM279.724 57V25.256H287.852V28.968C288.961 27.4747 290.433 26.3653 292.268 25.64C294.145 24.872 296.022 24.488 297.9 24.488C301.569 24.488 304.577 25.6827 306.924 28.072C309.27 30.4187 310.444 33.832 310.444 38.312V57H302.316V39.4C302.316 37.0107 301.697 35.0907 300.46 33.64C299.265 32.1467 297.494 31.4 295.148 31.4C292.801 31.4 290.988 32.1467 289.708 33.64C288.47 35.0907 287.852 37.0107 287.852 39.4V57H279.724ZM325.389 57.768C323.512 57.768 321.763 57.384 320.141 56.616C318.52 55.848 317.197 54.76 316.173 53.352C315.192 51.9013 314.701 50.1947 314.701 48.232C314.701 45.8853 315.277 43.9653 316.429 42.472C317.581 40.9787 319.16 39.8693 321.165 39.144C323.213 38.4187 325.496 38.056 328.013 38.056H335.565C335.565 36.6053 335.331 35.3893 334.861 34.408C334.435 33.4267 333.773 32.68 332.877 32.168C332.024 31.6133 330.957 31.336 329.677 31.336C328.184 31.336 326.84 31.6773 325.645 32.36C324.493 33 323.789 34.088 323.533 35.624H315.341C315.555 33.32 316.344 31.336 317.709 29.672C319.075 28.008 320.824 26.728 322.957 25.832C325.091 24.936 327.373 24.488 329.805 24.488C332.792 24.488 335.309 25.0427 337.357 26.152C339.448 27.2613 341.048 28.84 342.157 30.888C343.267 32.8933 343.821 35.2827 343.821 38.056V47.72C343.907 48.6587 344.248 49.2987 344.845 49.64C345.443 49.9813 346.232 50.152 347.213 50.152V57C345.208 57 343.523 56.808 342.157 56.424C340.835 56.04 339.747 55.4853 338.893 54.76C338.04 53.992 337.315 53.032 336.717 51.88C335.736 53.544 334.2 54.952 332.109 56.104C330.061 57.2133 327.821 57.768 325.389 57.768ZM327.757 51.176C329.165 51.176 330.445 50.856 331.597 50.216C332.792 49.576 333.752 48.68 334.477 47.528C335.203 46.376 335.565 45.0533 335.565 43.56V43.304H328.525C327.587 43.304 326.691 43.4533 325.837 43.752C324.984 44.008 324.301 44.4347 323.789 45.032C323.277 45.5867 323.021 46.3547 323.021 47.336C323.021 48.6587 323.469 49.64 324.365 50.28C325.304 50.8773 326.435 51.176 327.757 51.176ZM355.265 21.16C353.814 21.16 352.555 20.648 351.489 19.624C350.465 18.5573 349.953 17.2987 349.953 15.848C349.953 14.3547 350.465 13.096 351.489 12.072C352.555 11.048 353.814 10.536 355.265 10.536C356.758 10.536 358.017 11.048 359.041 12.072C360.065 13.096 360.577 14.3547 360.577 15.848C360.577 17.2987 360.065 18.5573 359.041 19.624C358.017 20.648 356.758 21.16 355.265 21.16ZM351.169 57V25.256H359.361V57H351.169ZM365.349 57V12.2H373.541V57H365.349Z" fill="white"/>
<path d="M393.365 71.848C390.463 71.848 387.861 71.528 385.557 70.888C383.253 70.248 381.418 69.2027 380.053 67.752C378.73 66.344 378.069 64.488 378.069 62.184C378.069 60.6907 378.389 59.3893 379.029 58.28C379.669 57.2133 380.65 56.2747 381.973 55.464C380.863 54.824 380.031 54.0133 379.477 53.032C378.922 52.0507 378.645 50.92 378.645 49.64C378.645 46.824 379.967 44.648 382.613 43.112C381.674 42.1307 380.949 41.0213 380.437 39.784C379.925 38.504 379.669 37.1813 379.669 35.816C379.669 33.512 380.223 31.528 381.333 29.864C382.442 28.1573 383.978 26.8347 385.941 25.896C387.903 24.9573 390.143 24.488 392.661 24.488C394.495 24.488 396.181 24.744 397.717 25.256H409.109V31.4H404.693C404.949 32.1253 405.162 32.8507 405.333 33.576C405.546 34.3013 405.653 35.048 405.653 35.816C405.653 38.0347 405.077 39.9973 403.925 41.704C402.773 43.4107 401.215 44.7547 399.253 45.736C397.333 46.6747 395.135 47.144 392.661 47.144C391.594 47.144 390.613 47.0587 389.717 46.888C388.821 46.6747 387.946 46.3547 387.093 45.928C386.154 46.3973 385.685 47.144 385.685 48.168C385.685 50.0453 387.242 50.984 390.357 50.984H396.181C398.741 50.984 400.917 51.3467 402.709 52.072C404.543 52.7547 405.93 53.8427 406.869 55.336C407.807 56.8293 408.277 58.728 408.277 61.032C408.277 63.2507 407.615 65.1707 406.293 66.792C404.97 68.4133 403.178 69.6507 400.917 70.504C398.655 71.4 396.138 71.848 393.365 71.848ZM393.365 65.448C395.413 65.448 397.141 65.1067 398.549 64.424C399.999 63.784 400.725 62.8027 400.725 61.48C400.725 58.9627 398.975 57.704 395.477 57.704H390.869C389.162 57.704 387.839 58.024 386.901 58.664C386.005 59.304 385.557 60.2427 385.557 61.48C385.557 62.4613 385.919 63.2293 386.645 63.784C387.37 64.3813 388.33 64.808 389.525 65.064C390.719 65.32 391.999 65.448 393.365 65.448ZM392.597 40.744C394.218 40.744 395.541 40.296 396.565 39.4C397.631 38.4613 398.165 37.2667 398.165 35.816C398.165 34.408 397.631 33.2347 396.565 32.296C395.541 31.3573 394.218 30.888 392.597 30.888C390.975 30.888 389.653 31.3573 388.629 32.296C387.647 33.2347 387.157 34.408 387.157 35.816C387.157 37.2667 387.626 38.4613 388.565 39.4C389.546 40.296 390.89 40.744 392.597 40.744ZM427.649 57.768C424.449 57.768 421.591 57.0853 419.073 55.72C416.599 54.312 414.657 52.3493 413.249 49.832C411.841 47.3147 411.137 44.4133 411.137 41.128C411.137 37.672 411.884 34.7067 413.377 32.232C414.913 29.7147 416.94 27.7947 419.457 26.472C422.017 25.1493 424.833 24.488 427.905 24.488C431.105 24.488 433.964 25.192 436.481 26.6C438.999 27.9653 440.983 29.8853 442.433 32.36C443.927 34.8347 444.673 37.7573 444.673 41.128C444.673 44.328 443.948 47.1867 442.497 49.704C441.047 52.2213 439.041 54.2053 436.481 55.656C433.964 57.064 431.02 57.768 427.649 57.768ZM427.777 50.664C429.484 50.664 430.956 50.2373 432.193 49.384C433.473 48.488 434.476 47.3147 435.201 45.864C435.927 44.3707 436.289 42.7493 436.289 41C436.289 38.9947 435.884 37.288 435.073 35.88C434.305 34.472 433.281 33.4053 432.001 32.68C430.721 31.9547 429.313 31.592 427.777 31.592C426.113 31.592 424.641 31.9973 423.361 32.808C422.124 33.6187 421.143 34.7493 420.417 36.2C419.735 37.608 419.393 39.2507 419.393 41.128C419.393 43.0053 419.756 44.6693 420.481 46.12C421.249 47.5707 422.273 48.7013 423.553 49.512C424.833 50.28 426.241 50.664 427.777 50.664Z" fill="#E60076"/>
<path d="M45.0263 57C52.7719 56.8427 59 50.5288 59 42.7667C59 38.9917 57.4963 35.3714 54.8197 32.7022L31.0527 9V23.7325C31.0527 26.1964 32.0341 28.5594 33.7812 30.3017L39.3488 35.8541L39.364 35.8688L48.6993 45.1788C49.0025 45.4811 49.0025 45.9713 48.6993 46.2736C48.3963 46.576 47.9046 46.576 47.6016 46.2736L44.3837 43.0645H14.6163L11.3985 46.2736C11.0953 46.576 10.6038 46.576 10.3006 46.2736C9.99745 45.9713 9.99745 45.4811 10.3006 45.1788L19.636 35.8688L19.6512 35.8541L25.2188 30.3017C26.9659 28.5594 27.9473 26.1964 27.9473 23.7325V9L4.18027 32.7022C1.50368 35.3714 0 38.9917 0 42.7667C0 50.5288 6.22814 56.8427 13.9737 57H45.0263Z" fill="white"/>
</svg>
